<svg t="1738575709032" class="icon" viewBox="0 0 1024 1024" version="1.1" xmlns="http://www.w3.org/2000/svg" p-id="12420" width="200" height="200"><path d="M86 880.338l-1.267-0.019c-40.981-1.242-40.977-62.732 0.012-63.962l1.255-0.019h53.3v-95.214c-0.01-0.448-0.01-0.897 0-1.344V507.17a32.305 32.305 0 0 1 0.657-6.482 31.762 31.762 0 0 1 2.223-6.804l-0.017 0.036a31.83 31.83 0 0 1 3.344-5.695 32.122 32.122 0 0 1 6.269-6.411l0.23-0.177a32.254 32.254 0 0 1 4.216-2.7 31.946 31.946 0 0 1 0.814-0.42l0.125-0.063a31.873 31.873 0 0 1 7.45-2.585 31.821 31.821 0 0 1 4.66-0.637 32.492 32.492 0 0 1 2.029-0.063h138.599l0.001-159.907c0-17.674 14.327-32 32-32 17.496 0 31.713 14.041 31.996 31.47l0.004 0.53-0.001 159.907H480.5V315.262c0-17.674 14.327-32 32-32 17.496 0 31.713 14.041 31.996 31.47l0.004 0.53v159.907h106.6V315.262c0-17.674 14.327-32 32-32 17.496 0 31.713 14.041 31.996 31.47l0.004 0.53v159.907h138.6c17.496 0 31.713 14.042 31.996 31.471l0.004 0.53 0.001 212.654c0.008 0.403 0.008 0.807 0 1.21l-0.001 95.304H939c17.673 0 32 14.327 32 32 0 17.497-14.042 31.714-31.47 31.996l-0.53 0.004H86zM768.399 713.53l-70.99 35.492a32 32 0 0 1-28.151 0.23l-0.468-0.23-70.99-35.492-70.99 35.492a32 32 0 0 1-28.152 0.23l-0.468-0.23-70.99-35.492-70.99 35.492a32 32 0 0 1-28.152 0.23l-0.468-0.23-70.99-35.492-53.3 26.647v76.161h618.4v-76.16l-53.301-26.648zM821.7 539.169H203.3v129.455l38.99-19.492a32 32 0 0 1 28.152-0.23l0.468 0.23 70.99 35.491 70.99-35.491a32 32 0 0 1 28.152-0.23l0.468 0.23 70.99 35.491 70.99-35.491a32 32 0 0 1 28.152-0.23l0.468 0.23 70.99 35.491 70.99-35.491a32 32 0 0 1 28.152-0.23l0.468 0.23 38.99 19.493V539.169zM683.1 134c17.496 0 31.713 14.042 31.996 31.47l0.004 0.53v42.646c0 17.673-14.327 32-32 32-17.496 0-31.713-14.042-31.996-31.47l-0.004-0.53V166c0-17.673 14.327-32 32-32z m-170.6 0c17.496 0 31.713 14.042 31.996 31.47l0.004 0.53v42.646c0 17.673-14.327 32-32 32-17.496 0-31.713-14.042-31.996-31.47l-0.004-0.53V166c0-17.673 14.327-32 32-32z m-170.6 0c17.496 0 31.713 14.042 31.996 31.47l0.004 0.53v42.646c0 17.673-14.327 32-32 32-17.496 0-31.713-14.042-31.996-31.47l-0.004-0.53V166c0-17.673 14.327-32 32-32z" p-id="12421" fill="#4d4d4d"></path></svg>