<svg xmlns="http://www.w3.org/2000/svg" width="200" height="200" class="icon" viewBox="0 0 1024 1024"><path fill="#4d4d4d" d="m86 880.338-1.267-.019c-40.981-1.242-40.977-62.732.012-63.962l1.255-.019h53.3v-95.214a30 30 0 0 1 0-1.344V507.17a32.3 32.3 0 0 1 .657-6.482 31.8 31.8 0 0 1 2.223-6.804l-.017.036a32 32 0 0 1 3.344-5.695 32.1 32.1 0 0 1 6.269-6.411l.23-.177a32 32 0 0 1 4.216-2.7 32 32 0 0 1 .814-.42l.125-.063a32 32 0 0 1 7.45-2.585 32 32 0 0 1 4.66-.637 33 33 0 0 1 2.029-.063h138.599l.001-159.907c0-17.674 14.327-32 32-32 17.496 0 31.713 14.041 31.996 31.47l.004.53-.001 159.907H480.5V315.262c0-17.674 14.327-32 32-32 17.496 0 31.713 14.041 31.996 31.47l.004.53v159.907h106.6V315.262c0-17.674 14.327-32 32-32 17.496 0 31.713 14.041 31.996 31.47l.004.53v159.907h138.6c17.496 0 31.713 14.042 31.996 31.471l.004.53.001 212.654q.012.605 0 1.21l-.001 95.304H939c17.673 0 32 14.327 32 32 0 17.497-14.042 31.714-31.47 31.996l-.53.004zM768.399 713.53l-70.99 35.492a32 32 0 0 1-28.151.23l-.468-.23-70.99-35.492-70.99 35.492a32 32 0 0 1-28.152.23l-.468-.23-70.99-35.492-70.99 35.492a32 32 0 0 1-28.152.23l-.468-.23-70.99-35.492-53.3 26.647v76.161h618.4v-76.16zM821.7 539.169H203.3v129.455l38.99-19.492a32 32 0 0 1 28.152-.23l.468.23 70.99 35.491 70.99-35.491a32 32 0 0 1 28.152-.23l.468.23 70.99 35.491 70.99-35.491a32 32 0 0 1 28.152-.23l.468.23 70.99 35.491 70.99-35.491a32 32 0 0 1 28.152-.23l.468.23 38.99 19.493zM683.1 134c17.496 0 31.713 14.042 31.996 31.47l.004.53v42.646c0 17.673-14.327 32-32 32-17.496 0-31.713-14.042-31.996-31.47l-.004-.53V166c0-17.673 14.327-32 32-32m-170.6 0c17.496 0 31.713 14.042 31.996 31.47l.004.53v42.646c0 17.673-14.327 32-32 32-17.496 0-31.713-14.042-31.996-31.47l-.004-.53V166c0-17.673 14.327-32 32-32m-170.6 0c17.496 0 31.713 14.042 31.996 31.47l.004.53v42.646c0 17.673-14.327 32-32 32-17.496 0-31.713-14.042-31.996-31.47l-.004-.53V166c0-17.673 14.327-32 32-32"/></svg>