<svg version="1.1" xmlns="http://www.w3.org/2000/svg" width="222" height="222" viewBox="0 0 222 222"><g transform="scale(0.867,0.867)"><rect fill="#4d4d4d" x="0" y="0" rx="16" ry="16" width="256" height="256" /><rect fill="#ffffff" x="9" y="9" rx="12" ry="12" width="238" height="238" /></g><g transform="translate(15,15) scale(0.094,0.094)"><g transform="translate(0,0)"><g transform="scale(1,-1) translate(0,-820)"><path stroke="none" fill="#4d4d4d" d="M36 694Q36 735 55 754Q73 773 114 773H263Q304 773 322 754Q341 735 341 694V-69Q341 -109 322 -128Q304 -147 263 -147H102Q46 -147 46 -111Q46 -75 102 -75H221Q245 -75 257 -63Q269 -50 269 -26V652Q269 676 258 687Q246 698 221 698H156Q131 698 120 687Q110 677 110 652V75Q110 19 73 19Q36 19 36 75V694V694ZM458 706Q458 762 494 762Q530 762 530 706V-77Q530 -132 494 -132Q458 -132 458 -77V706V706ZM645 694Q645 735 663 754Q681 773 723 773H878Q919 773 937 754Q956 735 956 694V75Q956 19 920 19Q884 19 884 75V652Q884 676 872 687Q860 698 836 698H765Q741 698 730 687Q719 676 719 652V-26Q719 -51 730 -63Q741 -75 765 -75H886Q942 -75 942 -111Q942 -147 886 -147H723Q681 -147 663 -128Q645 -110 645 -69V694V694V695V694Z" /></g></g><g transform="translate(1024,0)"><g transform="scale(1,-1) translate(0,-820)"><path stroke="none" fill="#4d4d4d" d="M110 714V572Q110 547 119 535Q128 523 148 523H176V720Q176 776 217 776Q257 776 257 720V523H283Q302 523 312 535Q321 547 321 572V714Q321 770 357 770Q393 770 393 714V521Q393 481 375 462Q356 443 315 443H257V395H315Q356 395 375 377Q393 358 393 316V-95Q393 -150 357 -150Q321 -150 321 -95V268Q321 292 312 303Q303 314 283 314H257V-69Q257 -109 238 -128Q219 -147 178 -147H114Q73 -147 55 -128Q36 -109 36 -69V330Q36 386 73 386Q110 386 110 330V-26Q110 -52 114 -63Q118 -75 128 -75H156Q167 -75 172 -63Q176 -51 176 -26V443H114Q73 443 55 462Q36 481 36 521V714Q36 770 73 770Q110 770 110 714V714V714ZM747 732V710H904Q960 710 960 670Q960 630 904 630H508Q451 630 451 671Q451 712 508 712H669V732Q669 788 708 788Q747 788 747 732V732V732ZM458 511Q458 554 476 573Q494 592 536 592H600Q641 592 660 573Q679 553 679 511V-93Q679 -148 639 -148Q598 -148 598 -93V467Q598 491 594 502Q589 513 578 513H548Q538 513 534 502Q530 492 530 467V-93Q530 -148 494 -148Q458 -148 458 -93V511V511ZM739 513Q739 556 757 574Q775 592 818 592H878Q919 592 937 574Q956 555 956 513V-93Q956 -148 920 -148Q884 -148 884 -93V473Q884 497 879 508Q875 519 866 519H838Q827 519 823 508Q820 498 820 473V-95Q820 -150 779 -150Q739 -150 739 -95V513V513V514V513Z" /></g></g><g transform="translate(0,1024)"><g transform="scale(1,-1) translate(0,-820)"><path stroke="none" fill="#4d4d4d" d="M110 714V560Q110 535 120 523Q130 511 152 511H182V706Q182 762 223 762Q263 762 263 706V511H299Q323 511 335 523Q347 535 347 560V706Q347 762 384 762Q422 762 422 706V509Q422 469 403 450Q384 431 343 431H263V401H343Q384 401 403 383Q422 364 422 322V-99Q422 -154 382 -154Q343 -154 343 -99V282Q343 306 331 317Q319 328 295 328H263V-93Q263 -148 223 -148Q182 -148 182 -93V328H152Q130 328 120 317Q110 306 110 282V-95Q110 -150 73 -150Q36 -150 36 -95V322Q36 364 55 383Q73 401 114 401H182V431H114Q73 431 55 450Q36 469 36 509V714Q36 770 73 770Q110 770 110 714V714V714ZM633 720H886Q942 720 942 680Q942 640 886 640H637V618H886Q942 618 942 582Q942 545 886 545H641V511H886Q942 511 942 471Q942 431 886 431H641V419Q641 410 652 405Q663 401 687 401H886Q942 401 942 365Q942 328 886 328H645Q603 328 584 347Q566 366 566 407V431H550Q540 431 535 423Q530 414 530 395V359Q530 303 494 303Q458 303 458 359V433Q458 475 476 493Q494 511 536 511H566V545H496Q439 545 439 582Q439 618 496 618H562V722Q562 765 597 765Q633 765 633 722V720V720ZM641 268V242H886Q942 242 942 205Q942 168 886 168H641V139H886Q942 139 942 100Q942 61 886 61H645V33H886Q942 33 942 -2Q942 -38 886 -38H647V-52Q647 -63 658 -69Q669 -75 693 -75H886Q942 -75 942 -111Q942 -147 886 -147H651Q609 -147 590 -128Q572 -110 572 -69V-38H554Q541 -38 535 -46Q530 -54 530 -73V-99Q530 -154 494 -154Q458 -154 458 -99V-44Q458 -2 476 15Q494 33 536 33H568V61H496Q439 61 439 100Q439 139 496 139H566V264Q566 321 604 323Q641 324 641 268V268V268V269V268Z" /></g></g><g transform="translate(1024,1024)"><g transform="scale(1,-1) translate(0,-820)"><path stroke="none" fill="#4d4d4d" d="M271 773H452Q492 773 511 754Q530 735 530 694V487H836Q860 487 872 499Q884 511 884 535V706Q884 762 920 762Q956 762 956 706V493Q956 453 937 434Q919 415 878 415H530V300H878Q919 300 937 282Q956 264 956 222V-77Q956 -132 920 -132Q884 -132 884 -77V176Q884 200 872 211Q860 222 836 222H530V-77Q530 -132 494 -132Q458 -132 458 -77V222H156Q132 222 121 211Q110 200 110 176V-77Q110 -132 73 -132Q36 -132 36 -77V222Q36 264 55 282Q73 300 114 300H458V415H114Q73 415 55 434Q36 453 36 493V650Q36 707 73 707Q110 707 110 650V535Q110 511 121 499Q132 487 156 487H458V652Q458 676 446 687Q434 698 410 698H271Q214 698 214 735Q214 773 271 773V773V773V774V773Z" /></g></g></g></svg>