<svg xmlns="http://www.w3.org/2000/svg" xmlns:xlink="http://www.w3.org/1999/xlink" fill="none" version="1.1" width="200" height="200" viewBox="0 0 200 200"><defs><clipPath id="master_svg0_31_6"><rect x="0" y="0" width="200" height="200" rx="0"/></clipPath></defs><g clip-path="url(#master_svg0_31_6)"><g transform="matrix(-1,0,0,1,285.716796875,0)"><path d="M142.8583984375,57.142578125L257.1443984375,57.142578125L257.1443984375,71.428278125L142.85840415955,71.428278125L142.8583984375,57.142578125Z" fill="#4D4D4D" fill-opacity="1" style="mix-blend-mode:passthrough"/></g><g transform="matrix(-1,0,0,1,285.716796875,0)"><path d="M142.8583984375,92.857421875L185.7154984375,92.857421875L185.7154984375,142.857421875L142.85840034485,142.857421875L142.8583984375,92.857421875Z" fill="#4D4D4D" fill-opacity="1" style="mix-blend-mode:passthrough"/></g><g transform="matrix(-1,0,0,1,171.431640625,0)"><path d="M85.7158203125,92.857421875L142.8587203125,92.857421875L142.8587203125,100.000281875L85.71582794189,100.000281875L85.7158203125,92.857421875Z" fill="#4D4D4D" fill-opacity="1" style="mix-blend-mode:passthrough"/></g><g transform="matrix(-1,0,0,1,171.431640625,0)"><path d="M85.7158203125,114.2861328125L142.8587203125,114.2861328125L142.8587203125,121.4289928125L85.71582794189,121.4289928125L85.7158203125,114.2861328125Z" fill="#4D4D4D" fill-opacity="1" style="mix-blend-mode:passthrough"/></g><g transform="matrix(-1,0,0,1,171.431640625,0)"><path d="M85.7158203125,135.7138671875L142.8587203125,135.7138671875L142.8587203125,142.8567271875L85.71582794189,142.8567271875L85.7158203125,135.7138671875Z" fill="#4D4D4D" fill-opacity="1" style="mix-blend-mode:passthrough"/></g><g><path d="M192.857,57.1428141494751L171.429,57.1428141494751L171.429,21.428574149475097C171.429,17.483924149475097,168.234,14.285715103149098,164.286,14.285715103149098L7.14286,14.285714149475098C3.195,14.285714149475098,4.76837e-7,17.483924149475097,4.76837e-7,21.428574149475097L4.76837e-7,178.5717141494751C4.76837e-7,182.5197141494751,3.19464,185.7147141494751,7.14286,185.7147141494751L192.857,185.7147141494751C196.805,185.7147141494751,200,182.5197141494751,200,178.5717141494751L200,64.2857141494751C200,60.341114149475096,196.805,57.1428141494751,192.857,57.1428141494751ZM157.143,171.4287141494751L14.2857,171.4287141494751L14.2857,28.571414149475096L157.143,28.571414149475096L157.143,171.4287141494751ZM185.714,171.4287141494751L171.429,171.4287141494751L171.429,71.4286141494751L185.714,71.4286141494751L185.714,171.4287141494751Z" fill="#4D4D4D" fill-opacity="1" style="mix-blend-mode:passthrough"/></g></g></svg>