<svg xmlns="http://www.w3.org/2000/svg" width="200" height="200" fill="none" viewBox="0 0 200 200"><defs><clipPath id="a"><rect width="200" height="200" rx="0"/></clipPath></defs><g clip-path="url(#a)"><path fill="#4d4d4d" d="M142.858 57.143h114.286v14.285H142.858zM142.858 92.857h42.857v50h-42.857z" style="mix-blend-mode:passthrough" transform="matrix(-1 0 0 1 285.717 0)"/><path fill="#4d4d4d" d="M85.716 92.857h57.143V100H85.716zM85.716 114.286h57.143v7.143H85.716zM85.716 135.714h57.143v7.143H85.716z" style="mix-blend-mode:passthrough" transform="matrix(-1 0 0 1 171.432 0)"/><path fill="#4d4d4d" d="M192.857 57.143h-21.428V21.429a7.14 7.14 0 0 0-7.143-7.143H7.143A7.14 7.14 0 0 0 0 21.429v157.143a7.14 7.14 0 0 0 7.143 7.143h185.714a7.14 7.14 0 0 0 7.143-7.143V64.286a7.14 7.14 0 0 0-7.143-7.143m-35.714 114.286H14.286V28.57h142.857zm28.571 0h-14.285v-100h14.285z" style="mix-blend-mode:passthrough"/></g></svg>