<svg xmlns="http://www.w3.org/2000/svg" width="200" height="200" fill="#4d4d4d" class="icon" viewBox="0 0 1024 1024"><path d="M418.133 499.2c-21.333-34.133-29.866-72.533-29.866-115.2 0-119.467 93.866-213.333 213.333-213.333S814.933 264.533 814.933 384 721.067 597.333 601.6 597.333c-46.933 0-85.333-12.8-123.733-38.4l-98.134 98.134L426.667 704l-59.734 59.733L320 716.8l-29.867 29.867 46.934 46.933-59.734 59.733-106.666-106.666zM601.6 256c-72.533 0-128 55.467-128 128s55.467 128 128 128 128-55.467 128-128-59.733-128-128-128"/></svg>