<svg t="1737078880245" class="icon" viewBox="0 0 1024 1024" version="1.1" xmlns="http://www.w3.org/2000/svg" p-id="4452" width="200" height="200"><path d="M547.003452 456.875951L546.790535 453.298956 546.790535 456.875951Z" fill="#4d4d4d" p-id="4453"></path><path d="M937.832744 0L86.167256 0c-47.011935 0-85.166549 38.154614-85.166549 85.166549l0 853.666902c0 47.011935 38.154614 85.166549 85.166549 85.166549l851.665488 0c47.011935 0 85.166549-38.154614 85.166549-85.166549L1022.999293 85.166549C1022.999293 38.154614 984.844679 0 937.832744 0zM303.554872 844.383748L152.341664 844.383748 152.341664 390.701543l151.255791 0L303.597455 844.383748zM227.926976 335.726536c-47.395184 0-85.847881-38.452697-85.847881-85.847881 0-47.437768 38.452697-85.890465 85.847881-85.890465 47.437768 0 85.890465 38.452697 85.890465 85.890465C313.817441 297.273839 275.364744 335.726536 227.926976 335.726536zM872.169335 844.383748l-151.724207 0-3.534412-269.509544c0 0 3.534412-71.880567-74.52073-70.986318s-89.297126 70.986318-89.297126 70.986318l0 269.509544L400.304071 844.383748l0-359.147336 0-28.403044L400.304071 390.701543l146.486464 0 0 62.597413c0 0 6.004242-20.397388 39.730195-44.371772 33.68337-23.974383 89.595209-29.297293 113.569593-28.403044s56.763505-3.278912 111.781095 34.620202c58.807502 40.454111 60.297917 146.358714 60.297917 146.358714L872.169335 844.383748z" fill="#4d4d4d" p-id="4454"></path></svg>
