<svg xmlns="http://www.w3.org/2000/svg" width="200" height="200" class="icon" viewBox="0 0 1024 1024"><path fill="#4d4d4d" d="M54.272 314.368h197.632v656.896H54.272zM153.6 51.2A102.4 102.4 0 0 0 51.2 153.6a102.4 102.4 0 0 0 102.4 96.768A102.4 102.4 0 0 0 256 153.6 102.4 102.4 0 0 0 153.6 51.2m755.2 350.208a196.1 196.1 0 0 0-162.816-67.072 217.6 217.6 0 0 0-194.56 110.592h-3.072v-130.56H382.464c3.072 67.072 0 656.896 0 656.896h197.632V563.2a94.72 94.72 0 0 1 98.816-75.776c64 0 95.744 46.592 95.744 136.704V972.8H972.8V599.04a288.26 288.26 0 0 0-64-197.632"/></svg>