<svg xmlns="http://www.w3.org/2000/svg" width="200" height="200" fill="#4d4d4d" class="icon" viewBox="0 0 1024 1024"><path d="M512 896C311.467 750.933 213.333 610.133 213.333 469.333c0-166.4 132.267-298.666 298.667-298.666s298.667 132.266 298.667 298.666c0 140.8-98.134 281.6-298.667 426.667m0-119.467c140.8-106.666 213.333-209.066 213.333-307.2C725.333 349.867 631.467 256 512 256s-213.333 93.867-213.333 213.333c0 98.134 72.533 200.534 213.333 307.2m0-179.2c-72.533 0-128-55.466-128-128s55.467-128 128-128 128 55.467 128 128-55.467 128-128 128M512 512c25.6 0 42.667-17.067 42.667-42.667S537.6 426.667 512 426.667s-42.667 17.066-42.667 42.666S486.4 512 512 512"/></svg>