<svg xmlns="http://www.w3.org/2000/svg" width="200" height="200" class="icon" viewBox="0 0 1024 1024"><path fill="#4d4d4d" d="M884.364 139.636A116.364 116.364 0 0 1 1000.727 256v535.273a116.364 116.364 0 0 1-116.363 116.363H139.636A116.364 116.364 0 0 1 23.273 791.273V256a116.364 116.364 0 0 1 116.363-116.364zm-768 130.025v521.612a23.273 23.273 0 0 0 23.272 23.272h744.728a23.273 23.273 0 0 0 23.272-23.272V270.8l-326.353 280.53a93.09 93.09 0 0 1-115.619 4.561l-4.096-3.165zm692.759-36.934H218.159l302.429 248.018z"/></svg>