<svg xmlns="http://www.w3.org/2000/svg" width="200" height="200" class="icon" viewBox="0 0 1284 1024"><path fill="#4d4d4d" d="M558.755 679.973c0 165.087 162.778 299.003 362.499 299.003 48.487 0 95.82-8.08 137.38-21.934 11.544 5.772 94.665 77.348 113.136 64.65 12.699-10.391-30.016-87.74-33.48-101.593 87.74-54.26 145.462-141.998 145.462-240.126 0-165.087-162.778-299.003-362.498-299.003S558.755 514.886 558.755 679.973m438.693-105.055c0-28.862 23.089-51.95 51.95-51.95s51.95 23.088 51.95 51.95-23.089 51.95-51.95 51.95-51.95-23.089-51.95-51.95m-255.135 0c0-28.862 23.09-51.95 51.95-51.95s51.951 23.088 51.951 51.95-23.089 51.95-51.95 51.95-51.95-23.089-51.95-51.95"/><path fill="#4d4d4d" d="M526.43 677.664c0-180.095 177.786-325.556 395.978-325.556 11.545 0 23.09 0 33.48 1.155C931.643 154.697 727.305 0 479.097 0 214.728 0 0 176.631 0 394.823c0 129.299 76.194 244.744 192.794 316.32-4.618 17.317-60.032 120.063-43.87 133.917 24.244 16.162 133.917-78.503 148.925-85.43 55.414 18.471 116.6 28.862 181.25 28.862 23.088 0 46.177-1.155 69.266-4.618-13.853-32.325-21.934-68.113-21.934-106.21m120.064-492.951c38.097 0 69.267 31.17 69.267 69.267 1.154 38.097-30.016 69.267-69.267 69.267-38.097 0-69.267-31.17-69.267-69.267s31.17-69.267 69.267-69.267M310.548 323.247c-38.097 0-69.267-31.17-69.267-69.267s31.17-69.267 69.267-69.267 69.267 31.17 69.267 69.267-31.17 69.267-69.267 69.267"/></svg>