<svg xmlns="http://www.w3.org/2000/svg" width="200" height="200" class="icon" viewBox="0 0 1024 1024"><path fill="#4d4d4d" d="M463.588 644.043c-21.48 24.54-42.562 48.618-63.642 72.696-62.927 71.896-125.866 143.791-188.793 215.699-5.594 6.396-11.092 12.864-16.833 19.127-1.165 1.274-3.204 2.463-4.854 2.475-48.388.134-96.775.11-145.162.085-.559 0-1.117-.157-2.44-.352 117.37-134.154 234.352-267.848 351.43-401.675-123.62-161.667-247.01-323.044-371.103-485.33h5.753c99.954 0 199.921.012 299.876-.073 3.531 0 5.752 1.007 7.925 3.871 69.468 91.945 139.02 183.817 208.562 275.689.898 1.189 1.845 2.354 3.058 3.883 6.457-7.342 12.755-14.466 19.018-21.639 75.184-85.961 150.38-171.923 225.492-257.945 2.403-2.755 4.806-3.895 8.508-3.883 46.567.133 93.134.085 139.7.085h5.68L616.98 442.653c128.766 170.26 257.435 340.411 386.808 511.484h-6.226c-96.92 0-193.853-.024-290.773.098-4.187 0-6.797-1.117-9.394-4.527-76.556-100.258-153.22-200.42-229.874-300.592-1.201-1.554-2.403-3.095-3.932-5.073m362.16 219.97c-2.149-2.876-3.496-4.684-4.843-6.48-88.049-116.448-176.098-232.908-264.146-349.356-88.79-117.419-177.59-234.825-266.307-352.292-2.124-2.816-4.284-3.969-7.864-3.957-26.542.158-53.085.085-79.627.097-1.407 0-2.815.146-4.903.255 1.736 2.294 2.986 3.969 4.26 5.631 28.01 36.603 56.021 73.207 84.02 109.81C437.532 465.324 588.7 662.903 739.81 860.542c1.954 2.561 3.957 3.556 7.173 3.544 24.418-.133 48.836-.073 73.255-.073z"/></svg>