<svg t="1711973204069" class="icon" viewBox="0 0 1024 1024" version="1.1" xmlns="http://www.w3.org/2000/svg" p-id="7118" width="200" height="200"><path d="M463.58831408 644.0429037c-21.48124445 24.53959111-42.56199111 48.61800297-63.64273778 72.69641482-62.9266963 71.89541925-125.86552889 143.79083852-188.79222519 215.69839407-5.59483259 6.39582815-11.09257482 12.86447408-16.83304296 19.12680296-1.16508445 1.27431111-3.20398222 2.46366815-4.85451852 2.47580445-48.38741333 0.13349925-96.77482667 0.10922667-145.16224 0.08495408-0.55826963 0-1.11653925-0.15777185-2.43939555-0.3519526 117.37012148-134.15461925 234.35188148-267.84805925 351.43073184-401.67499851-123.62031408-161.66760297-247.01003852-323.04393482-371.10366814-485.33048889h5.75260444c99.9545363 0 199.92120889 0.0121363 299.87574519-0.07281778 3.53166222 0 5.75260445 1.00731259 7.92500148 3.87147852 69.46816 91.94458075 139.02127408 183.8163437 208.56225186 275.68810666 0.89808592 1.18935703 1.84471703 2.35444148 3.05834666 3.88361482 6.45650963-7.34245925 12.75524741-14.46646518 19.01757629-21.6390163 75.18435555-85.96138667 150.38084741-171.92277333 225.49238519-257.94484148 2.40298667-2.75493925 4.80597333-3.89575111 8.5075437-3.88361482 46.56696889 0.13349925 93.13393778 0.08495408 139.70090666 0.08495408h5.67978667L616.97896297 442.65320297c128.7661037 170.26010075 257.43511703 340.41097482 386.80803555 511.4842074h-6.22592c-96.92046222 0-193.85306075-0.02427259-290.77352297 0.09709038-4.18702222 0-6.79632592-1.11653925-9.39349333-4.52683853-76.55575703-100.2579437-153.22074075-200.41879703-229.87358814-300.59178667-1.20149333-1.55344592-2.40298667-3.09475555-3.93216-5.07297185z m362.15921777 219.97037038c-2.14812445-2.87630222-3.49525333-4.68461037-4.84238222-6.48078223-88.04882963-116.44776297-176.09765925-232.90766222-264.14648888-349.35542518-88.7891437-117.41866667-177.5904237-234.82519703-266.30674964-352.29240889-2.12385185-2.81562075-4.28411259-3.96856889-7.86432-3.9564326-26.54208 0.15777185-53.08416 0.08495408-79.62624 0.09709037-1.40781037 0-2.81562075 0.14563555-4.9030637 0.25486223 1.73549037 2.29376 2.98552889 3.96856889 4.25984 5.63124147 28.01057185 36.60306963 56.0211437 73.20613925 84.01957926 109.8092089C437.53168592 465.32380445 588.70139259 662.90270815 739.81041778 860.54229333c1.9539437 2.56075852 3.95643259 3.55593482 7.17255111 3.54379852 24.41822815-0.13349925 48.8364563-0.07281778 73.25468444-0.07281777h5.50987852z" p-id="7119" fill="#4d4d4d"></path></svg>